<svg width="19" height="19" viewBox="0 0 19 19" fill="none" xmlns="http://www.w3.org/2000/svg">
<path fill-rule="evenodd" clip-rule="evenodd" d="M10.0552 17.7896L16.2423 11.6024C16.4475 11.3973 16.5627 11.1191 16.5627 10.829C16.5627 10.5389 16.4475 10.2607 16.2423 10.0556C16.0372 9.85051 15.759 9.73527 15.4689 9.73527C15.1789 9.73527 14.9007 9.85051 14.6955 10.0556L10.3753 14.3758L10.3769 1.54825C10.3769 1.2578 10.2615 0.979248 10.0561 0.773871C9.85075 0.568494 9.5722 0.453114 9.28175 0.453115C8.99131 0.453114 8.71276 0.568495 8.50738 0.773872C8.302 0.979249 8.18662 1.2578 8.18662 1.54825L8.18817 14.3758L3.86797 10.0556C3.66285 9.85051 3.38465 9.73527 3.09457 9.73527C2.80449 9.73527 2.52629 9.85051 2.32117 10.0556C2.11605 10.2607 2.00082 10.5389 2.00082 10.829C2.00082 11.1191 2.11605 11.3973 2.32117 11.6024L8.50835 17.7896C8.71347 17.9947 8.99167 18.11 9.28175 18.11C9.57183 18.11 9.85003 17.9947 10.0552 17.7896Z" fill="#131413"/>
</svg>
