<svg width="81" height="89" viewBox="0 0 81 89" fill="none" xmlns="http://www.w3.org/2000/svg">
<g filter="url(#filter0_d)">
<path d="M40.5 6L75.574 26.25V66.75L40.5 87L5.42597 66.75V26.25L40.5 6Z" fill="white"/>
</g>
<path d="M51.6667 32H28.3333C27.4493 32 26.6014 32.3512 25.9763 32.9763C25.3512 33.6014 25 34.4493 25 35.3333V58.6667C25 59.5507 25.3512 60.3986 25.9763 61.0237C26.6014 61.6488 27.4493 62 28.3333 62H51.6667C52.5507 62 53.3986 61.6488 54.0237 61.0237C54.6488 60.3986 55 59.5507 55 58.6667V35.3333C55 34.4493 54.6488 33.6014 54.0237 32.9763C53.3986 32.3512 52.5507 32 51.6667 32ZM36.6667 55.3333L28.3333 47L30.6833 44.65L36.6667 50.6167L49.3167 37.9667L51.6667 40.3333L36.6667 55.3333Z" fill="#6EC629"/>
<defs>
<filter id="filter0_d" x="1.42596" y="0" width="78.1481" height="89" filterUnits="userSpaceOnUse" color-interpolation-filters="sRGB">
<feFlood flood-opacity="0" result="BackgroundImageFix"/>
<feColorMatrix in="SourceAlpha" type="matrix" values="0 0 0 0 0 0 0 0 0 0 0 0 0 0 0 0 0 0 127 0"/>
<feOffset dy="-2"/>
<feGaussianBlur stdDeviation="2"/>
<feColorMatrix type="matrix" values="0 0 0 0 0 0 0 0 0 0 0 0 0 0 0 0 0 0 0.5 0"/>
<feBlend mode="normal" in2="BackgroundImageFix" result="effect1_dropShadow"/>
<feBlend mode="normal" in="SourceGraphic" in2="effect1_dropShadow" result="shape"/>
</filter>
</defs>
</svg>
