<svg width="31" height="31" viewBox="0 0 31 31" fill="none" xmlns="http://www.w3.org/2000/svg">
<path d="M15.4375 0C19.5318 0 23.4584 1.62645 26.3535 4.52154C29.2486 7.41663 30.875 11.3432 30.875 15.4375C30.875 19.5318 29.2486 23.4584 26.3535 26.3535C23.4584 29.2486 19.5318 30.875 15.4375 30.875C11.3432 30.875 7.41663 29.2486 4.52154 26.3535C1.62645 23.4584 0 19.5318 0 15.4375C0 11.3432 1.62645 7.41663 4.52154 4.52154C7.41663 1.62645 11.3432 0 15.4375 0ZM15.4375 1.625C11.7742 1.625 8.26093 3.08024 5.67059 5.67059C3.08024 8.26093 1.625 11.7742 1.625 15.4375C1.625 19.1008 3.08024 22.6141 5.67059 25.2044C8.26093 27.7948 11.7742 29.25 15.4375 29.25C19.1008 29.25 22.6141 27.7948 25.2044 25.2044C27.7948 22.6141 29.25 19.1008 29.25 15.4375C29.25 11.7742 27.7948 8.26093 25.2044 5.67059C22.6141 3.08024 19.1008 1.625 15.4375 1.625ZM14.625 6.5H16.25V15.3124L23.881 19.7178L23.0685 21.125L14.625 16.25V6.5Z" fill="#6EC629"/>
</svg>
