<svg width="14" height="14" viewBox="0 0 14 14" fill="none" xmlns="http://www.w3.org/2000/svg">
<path d="M13.44 0H0.56C0.25025 0 0 0.25025 0 0.56V13.44C0 13.7498 0.25025 14 0.56 14H13.44C13.7498 14 14 13.7498 14 13.44V0.56C14 0.25025 13.7498 0 13.44 0ZM12.88 12.88H9.65825V8.5785H11.4783L11.7513 6.46625H9.65825V5.117C9.65825 4.5045 9.828 4.088 10.7048 4.088H11.823V2.198C11.6287 2.17175 10.9655 2.114 10.192 2.114C8.5785 2.114 7.47425 3.09925 7.47425 4.907V6.4645H5.65075V8.57675H7.476V12.88H1.12V1.12H12.88V12.88Z" fill="white"/>
</svg>
