<svg width="15" height="15" viewBox="0 0 15 15" fill="none" xmlns="http://www.w3.org/2000/svg">
<path d="M15 7.54646C15 3.37751 11.6405 0 7.5 0C3.35672 0 0 3.37751 0 7.54646C0 11.3121 2.74172 14.4345 6.32812 15V9.72833H4.42359V7.54693H6.32812V5.88341C6.32812 3.99255 7.44609 2.94831 9.15984 2.94831C9.98063 2.94831 10.8398 3.09546 10.8398 3.09546V4.95236H9.8925C8.9625 4.95236 8.67188 5.53485 8.67188 6.1315V7.54646H10.7517L10.4175 9.72786H8.67188V14.9995C12.2555 14.434 15 11.3117 15 7.54599V7.54646Z" fill="black"/>
</svg>
