<svg width="81" height="89" viewBox="0 0 81 89" fill="none" xmlns="http://www.w3.org/2000/svg">
<g filter="url(#filter0_d)">
<path d="M40.5 0L75.574 20.25V60.75L40.5 81L5.42597 60.75V20.25L40.5 0Z" fill="white"/>
</g>
<path d="M56.5224 28.5249C56.5004 28.4853 56.4697 28.4458 56.4345 28.415C56.2148 28.1953 55.8588 28.1953 55.6391 28.415L48.0673 35.9868L45.0835 33.0029L52.6596 25.4267C52.6948 25.3916 52.7211 25.3564 52.7475 25.3169C52.9057 25.0488 52.8178 24.706 52.5498 24.5478C48.2343 21.999 42.583 22.5835 38.8696 26.2924C35.9252 29.2368 34.9497 33.4116 35.9472 37.1645L23.0712 50.0405C22.9394 50.1723 22.9482 50.3877 23.0844 50.5239L30.5419 57.9814C30.6782 58.1176 30.8979 58.1264 31.0253 57.9946L43.8969 45.123C47.6543 46.125 51.8291 45.1538 54.7778 42.205C58.4868 38.4917 59.0712 32.8403 56.5224 28.5249ZM52.541 39.9638C49.9877 42.5171 46.1557 43.0092 43.1103 41.4404L42.7236 41.8271L42.7192 41.8227L30.6782 53.8681L27.1977 50.3877L37.3095 40.2758C37.3095 40.2758 37.3095 40.2802 37.3139 40.2802L39.6342 37.9599C38.0654 34.9145 38.5576 31.0825 41.1108 28.5293C41.9343 27.7051 42.9259 27.0683 44.0181 26.6626C45.1102 26.2568 46.2771 26.0916 47.4389 26.1782L41.5986 32.0141C41.3348 32.2782 41.1866 32.6362 41.1866 33.0095C41.1866 33.3828 41.3348 33.7408 41.5986 34.0048L47.0698 39.476C47.3339 39.7398 47.6919 39.888 48.0651 39.888C48.4384 39.888 48.7964 39.7398 49.0605 39.476L54.8964 33.6401C55.059 35.9165 54.2636 38.2456 52.541 39.9638Z" fill="#6EC629"/>
<defs>
<filter id="filter0_d" x="1.42596" y="0" width="78.1481" height="89" filterUnits="userSpaceOnUse" color-interpolation-filters="sRGB">
<feFlood flood-opacity="0" result="BackgroundImageFix"/>
<feColorMatrix in="SourceAlpha" type="matrix" values="0 0 0 0 0 0 0 0 0 0 0 0 0 0 0 0 0 0 127 0"/>
<feOffset dy="4"/>
<feGaussianBlur stdDeviation="2"/>
<feColorMatrix type="matrix" values="0 0 0 0 0 0 0 0 0 0 0 0 0 0 0 0 0 0 0.25 0"/>
<feBlend mode="normal" in2="BackgroundImageFix" result="effect1_dropShadow"/>
<feBlend mode="normal" in="SourceGraphic" in2="effect1_dropShadow" result="shape"/>
</filter>
</defs>
</svg>
