<svg width="14" height="13" viewBox="0 0 14 13" fill="none" xmlns="http://www.w3.org/2000/svg">
<path d="M13.9922 5.6875V11.375C13.9922 11.806 13.8284 12.2193 13.5368 12.524C13.2453 12.8288 12.8498 13 12.4375 13H1.55469C1.14236 13 0.746918 12.8288 0.455357 12.524C0.163797 12.2193 0 11.806 0 11.375V5.6875C0 5.47201 0.0818984 5.26535 0.227679 5.11298C0.373459 4.9606 0.571179 4.875 0.777344 4.875C0.884893 4.85034 0.996279 4.85034 1.10383 4.875L6.99609 8.125L12.9039 4.875C13.0064 4.85256 13.1123 4.85256 13.2148 4.875C13.421 4.875 13.6187 4.9606 13.7645 5.11298C13.9103 5.26535 13.9922 5.47201 13.9922 5.6875ZM0.388672 1.495L0.513047 1.625L6.99609 4.875L13.5102 1.625H13.6035C13.7398 1.54714 13.8501 1.42759 13.9196 1.28237C13.989 1.13714 14.0144 0.973197 13.9922 0.8125C13.9922 0.597012 13.9103 0.390349 13.7645 0.237976C13.6187 0.0856026 13.421 0 13.2148 0H0.777344C0.571179 0 0.373459 0.0856026 0.227679 0.237976C0.0818984 0.390349 0 0.597012 0 0.8125C0.00196764 0.951866 0.0389009 1.08825 0.107107 1.20802C0.175314 1.32779 0.272404 1.42675 0.388672 1.495Z" fill="white"/>
</svg>
