<svg width="30" height="27" viewBox="0 0 30 27" fill="none" xmlns="http://www.w3.org/2000/svg">
<path d="M29.9832 11.8125V23.625C29.9832 24.5201 29.6323 25.3785 29.0075 26.0115C28.3827 26.6444 27.5353 27 26.6518 27H3.33147C2.44791 27 1.60054 26.6444 0.975765 26.0115C0.350993 25.3785 0 24.5201 0 23.625V11.8125C0 11.3649 0.175497 10.9357 0.487883 10.6193C0.800269 10.3028 1.22396 10.125 1.66574 10.125C1.8962 10.0738 2.13488 10.0738 2.36535 10.125L14.9916 16.875L27.6512 10.125C27.8709 10.0784 28.0978 10.0784 28.3175 10.125C28.7593 10.125 29.183 10.3028 29.4954 10.6193C29.8078 10.9357 29.9832 11.3649 29.9832 11.8125ZM0.832868 3.105L1.09939 3.375L14.9916 10.125L28.9505 3.375H29.1504C29.4425 3.21329 29.6788 2.96499 29.8277 2.66338C29.9765 2.36176 30.0308 2.02125 29.9832 1.6875C29.9832 1.23995 29.8078 0.810725 29.4954 0.494258C29.183 0.17779 28.7593 0 28.3175 0H1.66574C1.22396 0 0.800269 0.17779 0.487883 0.494258C0.175497 0.810725 0 1.23995 0 1.6875C0.00421637 1.97695 0.083359 2.26021 0.229516 2.50896C0.375673 2.75772 0.583723 2.96324 0.832868 3.105Z" fill="#6EC629"/>
</svg>
