<svg width="19" height="25" viewBox="0 0 19 25" fill="none" xmlns="http://www.w3.org/2000/svg">
<path d="M16.0408 2.80347L12.6073 1.09153C12.3648 0.969804 12.1006 0.89719 11.83 0.877867C11.5593 0.858544 11.2875 0.892891 11.0301 0.978934C10.5056 1.15416 10.0811 1.52436 9.83482 2.01774L7.99013 5.71329C7.86841 5.95581 7.7958 6.22001 7.77648 6.49068C7.75715 6.76136 7.7915 7.03318 7.87755 7.29054C8.05278 7.81508 8.42297 8.23956 8.91636 8.48585L11.6187 9.83479C11.4937 11.0383 11.1521 12.2093 10.6103 13.2912C10.072 14.3764 9.34236 15.3556 8.45646 16.1819L5.75416 14.8329C5.51163 14.7112 5.24744 14.6386 4.97677 14.6193C4.7061 14.5999 4.43428 14.6343 4.17692 14.7203C3.65239 14.8956 3.22792 15.2657 2.98164 15.7591L1.13373 19.4531C1.01189 19.696 0.939288 19.9606 0.920105 20.2317C0.900922 20.5028 0.935534 20.7751 1.02195 21.0327C1.19718 21.5573 1.56738 21.9818 2.06076 22.228L5.48862 23.9392C6.27626 24.3344 7.2031 24.3982 8.03944 24.1188C8.2159 24.0599 8.38026 23.9889 8.53735 23.9041C11.6165 22.279 14.2693 19.4662 16.0069 15.9891C17.7429 12.5153 18.3948 8.7077 17.8469 5.25792C17.6778 4.2047 17.0034 3.288 16.0408 2.80347Z" fill="white"/>
</svg>
