<svg width="35" height="35" viewBox="0 0 35 35" fill="none" xmlns="http://www.w3.org/2000/svg">
<path d="M18.9583 11.6667C20.1187 11.6667 21.2315 12.1276 22.0519 12.9481C22.8724 13.7685 23.3333 14.8813 23.3333 16.0417C23.3333 16.4284 23.487 16.7994 23.7605 17.0729C24.034 17.3464 24.4049 17.5 24.7917 17.5C25.1784 17.5 25.5494 17.3464 25.8229 17.0729C26.0964 16.7994 26.25 16.4284 26.25 16.0417C26.25 14.1078 25.4818 12.2531 24.1143 10.8857C22.7469 9.51823 20.8922 8.75 18.9583 8.75C18.5716 8.75 18.2006 8.90365 17.9271 9.17714C17.6536 9.45063 17.5 9.82156 17.5 10.2083C17.5 10.5951 17.6536 10.966 17.9271 11.2395C18.2006 11.513 18.5716 11.6667 18.9583 11.6667Z" fill="black"/>
<path d="M18.9583 5.83268C21.6657 5.83268 24.2622 6.9082 26.1767 8.82263C28.0911 10.7371 29.1666 13.3336 29.1666 16.041C29.1666 16.4278 29.3203 16.7987 29.5938 17.0722C29.8673 17.3457 30.2382 17.4993 30.625 17.4993C31.0117 17.4993 31.3827 17.3457 31.6562 17.0722C31.9296 16.7987 32.0833 16.4278 32.0833 16.041C32.0833 12.5601 30.7005 9.22165 28.2391 6.76024C25.7777 4.29882 22.4393 2.91602 18.9583 2.91602C18.5715 2.91602 18.2006 3.06966 17.9271 3.34315C17.6536 3.61664 17.5 3.98757 17.5 4.37435C17.5 4.76112 17.6536 5.13206 17.9271 5.40555C18.2006 5.67904 18.5715 5.83268 18.9583 5.83268ZM31.7187 23.2014C31.6385 22.9673 31.5 22.7575 31.3163 22.5916C31.1326 22.4258 30.9098 22.3094 30.6687 22.2535L21.9187 20.2556C21.6812 20.2017 21.434 20.2082 21.1996 20.2745C20.9653 20.3407 20.7512 20.4646 20.577 20.6348C20.3729 20.8243 20.3583 20.8389 19.4104 22.6473C16.265 21.1979 13.7447 18.6673 12.3083 15.516C14.1604 14.5827 14.175 14.5827 14.3645 14.3639C14.5347 14.1897 14.6586 13.9757 14.7248 13.7413C14.7911 13.507 14.7976 13.2598 14.7437 13.0223L12.7458 4.37435C12.6899 4.13328 12.5735 3.91041 12.4077 3.72672C12.2418 3.54303 12.032 3.40456 11.7979 3.32435C11.4573 3.20271 11.1056 3.11479 10.7479 3.06185C10.3793 2.97638 10.0032 2.92754 9.62496 2.91602C7.8458 2.91602 6.13951 3.62278 4.88145 4.88084C3.62339 6.1389 2.91663 7.84519 2.91663 9.62435C2.92434 15.5783 5.29296 21.2862 9.50304 25.4963C13.7131 29.7063 19.421 32.075 25.375 32.0827C26.2559 32.0827 27.1282 31.9092 27.9421 31.572C28.756 31.2349 29.4955 30.7408 30.1185 30.1179C30.7414 29.4949 31.2355 28.7554 31.5727 27.9415C31.9098 27.1276 32.0833 26.2553 32.0833 25.3743C32.0837 25.0032 32.0545 24.6325 31.9958 24.266C31.9345 23.9038 31.8418 23.5476 31.7187 23.2014ZM25.375 29.166C20.1934 29.1622 15.2251 27.1021 11.5612 23.4381C7.89724 19.7742 5.83716 14.8059 5.83329 9.62435C5.83713 8.61992 6.23785 7.65772 6.94809 6.94748C7.65833 6.23724 8.62053 5.83652 9.62496 5.83268H10.1062L11.6666 12.5993L10.8791 13.0077C9.62496 13.6639 8.63329 14.1889 9.15829 15.3264C10.0132 17.7467 11.3965 19.946 13.2077 21.7648C15.0189 23.5836 17.2125 24.976 19.6291 25.841C20.8541 26.3368 21.3354 25.4181 21.9916 24.1493L22.4145 23.3473L29.1666 24.8931V25.3743C29.1628 26.3788 28.7621 27.341 28.0518 28.0512C27.3416 28.7615 26.3794 29.1622 25.375 29.166Z" fill="black"/>
</svg>
