<svg width="19" height="19" viewBox="0 0 19 19" fill="none" xmlns="http://www.w3.org/2000/svg">
<path fill-rule="evenodd" clip-rule="evenodd" d="M18.0074 8.72711L11.8202 2.53992C11.6151 2.3348 11.3369 2.21957 11.0468 2.21957C10.7567 2.21957 10.4785 2.3348 10.2734 2.53992C10.0683 2.74504 9.95305 3.02324 9.95305 3.31332C9.95305 3.6034 10.0683 3.8816 10.2734 4.08672L14.5936 8.40692L1.76602 8.40537C1.47557 8.40537 1.19702 8.52075 0.991644 8.72613C0.786267 8.93151 0.670888 9.21006 0.670888 9.5005C0.670888 9.79095 0.786268 10.0695 0.991645 10.2749C1.19702 10.4803 1.47557 10.5956 1.76602 10.5956L14.5936 10.5941L10.2734 14.9143C10.0683 15.1194 9.95305 15.3976 9.95305 15.6877C9.95305 15.9778 10.0683 16.256 10.2734 16.4611C10.4785 16.6662 10.7567 16.7814 11.0468 16.7814C11.3369 16.7814 11.6151 16.6662 11.8202 16.4611L18.0074 10.2739C18.2125 10.0688 18.3277 9.79059 18.3277 9.50051C18.3277 9.21042 18.2125 8.93222 18.0074 8.72711Z" fill="#131413"/>
</svg>
