<svg width="19" height="19" viewBox="0 0 19 19" fill="none" xmlns="http://www.w3.org/2000/svg">
<path fill-rule="evenodd" clip-rule="evenodd" d="M0.99262 8.72711L7.1798 2.53992C7.38492 2.3348 7.66312 2.21957 7.9532 2.21957C8.24328 2.21957 8.52148 2.3348 8.7266 2.53992C8.93172 2.74504 9.04695 3.02324 9.04695 3.31332C9.04695 3.6034 8.93172 3.8816 8.7266 4.08672L4.4064 8.40692L17.234 8.40537C17.5244 8.40537 17.803 8.52075 18.0084 8.72613C18.2137 8.93151 18.3291 9.21006 18.3291 9.5005C18.3291 9.79095 18.2137 10.0695 18.0084 10.2749C17.803 10.4803 17.5244 10.5956 17.234 10.5956L4.4064 10.5941L8.7266 14.9143C8.93172 15.1194 9.04695 15.3976 9.04695 15.6877C9.04695 15.9778 8.93172 16.256 8.7266 16.4611C8.52148 16.6662 8.24328 16.7814 7.9532 16.7814C7.66312 16.7814 7.38492 16.6662 7.17981 16.4611L0.99262 10.2739C0.787502 10.0688 0.672268 9.79059 0.672268 9.50051C0.672268 9.21042 0.787502 8.93222 0.99262 8.72711Z" fill="#131413"/>
</svg>
