<svg width="16" height="16" viewBox="0 0 16 16" fill="none" xmlns="http://www.w3.org/2000/svg">
<path d="M7.19315 0.00232818C5.90915 0.0178282 3.14865 0.228828 1.60465 1.64533C0.456145 2.78333 0.0551452 4.46583 0.00814518 6.54633C-0.0308548 8.61933 -0.0778549 12.5123 3.67465 13.5723V15.1868C3.67465 15.1868 3.65115 15.8328 4.07815 15.9653C4.60415 16.1318 4.90365 15.6348 5.40365 15.1008L6.33615 14.0463C8.90365 14.2598 10.8701 13.7678 11.0966 13.6948C11.6176 13.5283 14.5521 13.1533 15.0316 9.25983C15.5236 5.23883 14.7921 2.70533 13.4716 1.55933H13.4636C13.0651 1.19233 11.4636 0.0253282 7.88565 0.0123282C7.88565 0.0123282 7.62015 -0.00567182 7.19315 0.00182818V0.00232818ZM7.23715 1.13283C7.60165 1.13033 7.82315 1.14583 7.82315 1.14583C10.8516 1.15383 12.2971 2.06533 12.6381 2.37233C13.7501 3.32533 14.3231 5.60933 13.9036 8.96633C13.5051 12.2213 11.1251 12.4273 10.6846 12.5678C10.4971 12.6278 8.76515 13.0548 6.58315 12.9143C6.58315 12.9143 4.95815 14.8753 4.45015 15.3803C4.36965 15.4688 4.27565 15.4948 4.21565 15.4818C4.12965 15.4608 4.10365 15.3543 4.10865 15.2083L4.12415 12.5288C0.941646 11.6488 1.12915 8.32833 1.16315 6.59383C1.20215 4.85933 1.52764 3.44033 2.49664 2.47933C3.80115 1.29983 6.14515 1.14083 7.23615 1.13283H7.23715ZM7.47715 2.86683C7.45095 2.86656 7.42497 2.87149 7.40068 2.88131C7.3764 2.89114 7.35431 2.90567 7.33567 2.92408C7.31703 2.94249 7.30222 2.9644 7.29209 2.98855C7.28196 3.01271 7.27671 3.03863 7.27665 3.06483C7.27665 3.17683 7.36765 3.26533 7.47715 3.26533C7.9729 3.2559 8.46561 3.34471 8.92687 3.52664C9.38813 3.70857 9.80881 3.98002 10.1646 4.32533C10.8911 5.03083 11.2451 5.97883 11.2586 7.21833C11.2586 7.32783 11.3471 7.41883 11.4591 7.41883V7.41083C11.5119 7.41096 11.5626 7.39022 11.6002 7.35313C11.6377 7.31604 11.6591 7.26561 11.6596 7.21283C11.6839 6.6294 11.5893 6.04713 11.3816 5.50141C11.1738 4.95569 10.8573 4.45791 10.4511 4.03833C9.65965 3.26483 8.65664 2.86633 7.47715 2.86633V2.86683ZM4.84165 3.32533C4.70012 3.30465 4.55578 3.33306 4.43265 3.40583H4.42215C4.13628 3.5734 3.87875 3.78519 3.65915 4.03333C3.47664 4.24433 3.37765 4.45783 3.35164 4.66333C3.33614 4.78583 3.34665 4.90833 3.38315 5.02533L3.39615 5.03333C3.60164 5.63733 3.87015 6.21833 4.19815 6.76533C4.62066 7.53381 5.14062 8.24451 5.74515 8.87983L5.76315 8.90583L5.79165 8.92683L5.80965 8.94783L5.83065 8.96583C6.46826 9.57212 7.18069 10.0945 7.95064 10.5203C8.83064 10.9993 9.36464 11.2258 9.68514 11.3198V11.3248C9.77914 11.3533 9.86464 11.3663 9.95064 11.3663C10.2238 11.3463 10.4824 11.2354 10.6851 11.0513C10.9322 10.8317 11.1416 10.5731 11.3051 10.2858V10.2808C11.4586 9.99183 11.4066 9.71833 11.1851 9.53333C10.7416 9.14558 10.2619 8.80117 9.75264 8.50483C9.41164 8.31983 9.06514 8.43183 8.92464 8.61933L8.62514 8.99683C8.47165 9.18433 8.19265 9.15833 8.19265 9.15833L8.18464 9.16333C6.10415 8.63183 5.54915 6.52533 5.54915 6.52533C5.54915 6.52533 5.52315 6.23883 5.71565 6.09283L6.09065 5.79083C6.27015 5.64483 6.39515 5.29883 6.20265 4.95733C5.90835 4.4474 5.5647 3.9676 5.17665 3.52483C5.09181 3.42044 4.97279 3.34942 4.84065 3.32433L4.84165 3.32533ZM7.82315 3.91933C7.55765 3.91933 7.55764 4.32033 7.82564 4.32033C8.15579 4.32568 8.48163 4.39605 8.78457 4.52739C9.0875 4.65874 9.36158 4.8485 9.59114 5.08583C9.80056 5.31683 9.96148 5.58752 10.0644 5.88185C10.1673 6.17618 10.21 6.48817 10.1901 6.79933C10.1911 6.85199 10.2126 6.9022 10.25 6.9392C10.2875 6.97621 10.338 6.99707 10.3906 6.99733L10.3986 7.00783C10.4517 7.00744 10.5025 6.98619 10.54 6.94867C10.5775 6.91115 10.5988 6.86038 10.5991 6.80733C10.6171 6.01283 10.3701 5.34633 9.88564 4.81233C9.39865 4.27833 8.71914 3.97883 7.85164 3.91933H7.82315ZM8.15164 4.99733C7.87814 4.98933 7.86765 5.39833 8.13865 5.40633C8.79765 5.44033 9.11765 5.77333 9.15965 6.45833C9.16056 6.51032 9.18179 6.5599 9.2188 6.59644C9.2558 6.63297 9.30564 6.65357 9.35765 6.65383H9.36564C9.39238 6.65268 9.41862 6.64622 9.44283 6.63482C9.46705 6.62343 9.48874 6.60732 9.50667 6.58745C9.52459 6.56757 9.53837 6.54432 9.54721 6.51907C9.55604 6.49381 9.55976 6.46704 9.55814 6.44033C9.51114 5.54733 9.02415 5.04433 8.15965 4.99783H8.15164V4.99733Z" fill="white"/>
</svg>
